<?xml version="1.0" encoding="UTF-8"?>
<svg xmlns="http://www.w3.org/2000/svg" xmlns:xlink="http://www.w3.org/1999/xlink" width="32px" height="32px" viewBox="0 0 32 32" version="1.1">
<g id="surface1">
<path style=" stroke:none;fill-rule:nonzero;fill:rgb(98.039216%,99.215686%,99.215686%);fill-opacity:1;" d="M 0 0 C 10.558594 0 21.121094 0 32 0 C 32 10.558594 32 21.121094 32 32 C 21.441406 32 10.878906 32 0 32 C 0 21.441406 0 10.878906 0 0 Z M 0 0 "/>
<path style=" stroke:none;fill-rule:nonzero;fill:rgb(3.529412%,58.823532%,58.823532%);fill-opacity:1;" d="M 20 4.800781 C 23.207031 6.433594 25.3125 8.152344 27.199219 11.199219 C 27.90625 15.085938 28.132812 19.117188 26.179688 22.644531 C 23.949219 25.269531 22.242188 27.046875 18.710938 27.417969 C 11.089844 27.664062 11.089844 27.664062 8.300781 25.449219 C 5.113281 21.675781 4.425781 18.632812 4.546875 13.773438 C 5.0625 10.167969 7.058594 8.03125 9.699219 5.699219 C 13.152344 4.347656 16.34375 4.265625 20 4.800781 Z M 20 4.800781 "/>
<path style=" stroke:none;fill-rule:nonzero;fill:rgb(89.019608%,94.901961%,94.901961%);fill-opacity:1;" d="M 16.300781 10.101562 C 17.230469 10.0625 18.160156 10.023438 19.117188 9.980469 C 21.601562 10.398438 21.601562 10.398438 23.179688 12.21875 C 24 14.398438 24 14.398438 23.914062 16.058594 C 23.042969 17.9375 22.003906 19.171875 20.550781 20.648438 C 20.074219 21.148438 19.597656 21.648438 19.109375 22.164062 C 17.601562 23.199219 17.601562 23.199219 16.027344 23.164062 C 13.902344 22.167969 12.617188 20.847656 11 19.148438 C 10.433594 18.5625 9.871094 17.976562 9.289062 17.371094 C 8.863281 16.917969 8.4375 16.464844 8 16 C 10.808594 10.257812 10.808594 10.257812 16.300781 10.101562 Z M 16.300781 10.101562 "/>
<path style=" stroke:none;fill-rule:nonzero;fill:rgb(26.666668%,68.235296%,68.235296%);fill-opacity:1;" d="M 12.800781 12.800781 C 14.910156 12.800781 17.023438 12.800781 19.199219 12.800781 C 18.9375 13.328125 18.671875 13.855469 18.398438 14.398438 C 18.929688 14.929688 19.457031 15.457031 20 16 C 20 16.527344 20 17.054688 20 17.601562 C 18.945312 17.601562 17.886719 17.601562 16.800781 17.601562 C 16.800781 18.390625 16.800781 19.183594 16.800781 20 C 16.273438 20 15.742188 20 15.199219 20 C 15.199219 19.207031 15.199219 18.414062 15.199219 17.601562 C 14.144531 17.601562 13.089844 17.601562 12 17.601562 C 12 16.808594 12 16.015625 12 15.199219 C 13.585938 15.992188 13.585938 15.992188 15.199219 16.800781 C 15.199219 15.742188 15.199219 14.6875 15.199219 13.601562 C 14.40625 13.335938 13.617188 13.070312 12.800781 12.800781 Z M 12.800781 12.800781 "/>
<path style=" stroke:none;fill-rule:nonzero;fill:rgb(15.294118%,63.921571%,63.921571%);fill-opacity:1;" d="M 12.800781 12.800781 C 14.910156 12.800781 17.023438 12.800781 19.199219 12.800781 C 18.9375 13.328125 18.671875 13.855469 18.398438 14.398438 C 18.929688 14.929688 19.457031 15.457031 20 16 C 18.414062 16 16.832031 16 15.199219 16 C 15.199219 15.207031 15.199219 14.414062 15.199219 13.601562 C 14.40625 13.335938 13.617188 13.070312 12.800781 12.800781 Z M 12.800781 12.800781 "/>
</g>
</svg>
