<?xml version="1.0" standalone="no"?>
<!DOCTYPE svg PUBLIC "-//W3C//DTD SVG 20010904//EN"
 "http://www.w3.org/TR/2001/REC-SVG-20010904/DTD/svg10.dtd">
<svg version="1.0" xmlns="http://www.w3.org/2000/svg"
 width="32.000000pt" height="32.000000pt" viewBox="0 0 32.000000 32.000000"
 preserveAspectRatio="xMidYMid meet">
<metadata>
Created by potrace 1.10, written by Peter Selinger 2001-2011
</metadata>
<g transform="translate(0.000000,32.000000) scale(0.100000,-0.100000)"
fill="#000000" stroke="none">
<path d="M123 310 c-75 -17 -115 -70 -115 -150 0 -58 23 -105 65 -130 35 -22
72 -26 82 -10 3 6 11 10 16 10 6 0 7 -5 4 -10 -9 -15 32 -12 63 4 39 20 59 46
71 94 22 81 -24 173 -93 187 -17 4 -38 8 -46 10 -8 1 -30 -1 -47 -5z m56 -9
c17 -11 5 -31 -19 -31 -24 0 -36 20 -19 31 8 5 16 9 19 9 3 0 11 -4 19 -9z
m71 -93 c11 -18 19 -38 18 -43 -2 -6 -27 -32 -55 -59 l-53 -49 -52 49 c-29 27
-54 52 -56 56 -2 5 6 24 18 43 21 35 23 35 91 35 67 0 70 -1 89 -32z"/>
<path d="M110 200 c0 -5 10 -10 23 -11 21 -1 21 -1 -3 -8 -31 -9 -33 -35 -2
-39 12 -2 22 -10 22 -18 0 -8 5 -14 10 -14 6 0 10 6 10 14 0 8 10 16 23 18 30
4 28 30 -3 39 -24 7 -24 7 -2 8 45 2 20 21 -28 21 -27 0 -50 -4 -50 -10z m90
-41 c0 -5 -18 -9 -40 -9 -22 0 -40 4 -40 9 0 4 18 8 40 8 22 0 40 -4 40 -8z"/>
</g>
</svg>
