<?xml version="1.0" standalone="no"?>
<!DOCTYPE svg PUBLIC "-//W3C//DTD SVG 20010904//EN"
 "http://www.w3.org/TR/2001/REC-SVG-20010904/DTD/svg10.dtd">
<svg version="1.0" xmlns="http://www.w3.org/2000/svg"
 width="32px" height="32px" viewBox="0 0 1024.000000 1024.000000"
 preserveAspectRatio="xMidYMid meet">

<g transform="translate(0.000000,1024.000000) scale(0.100000,-0.100000)"
fill="#26A17B" stroke="none">
<path d="M4910 9494 c-952 -48 -1796 -367 -2542 -962 -172 -137 -494 -460
-632 -632 -111 -140 -299 -416 -379 -556 -488 -861 -672 -1834 -532 -2809 156
-1074 738 -2089 1590 -2772 611 -489 1364 -807 2145 -907 419 -54 884 -45
1285 24 1602 277 2886 1381 3395 2919 90 274 159 589 197 909 25 208 25 738 0
937 -73 584 -222 1075 -469 1544 -342 652 -818 1180 -1418 1576 -183 120 -266
168 -455 263 -498 249 -1055 406 -1600 451 -140 12 -476 20 -585 15z m525 -24
c266 -19 652 -81 638 -103 -4 -6 0 -8 11 -4 32 12 275 -50 254 -65 -9 -7 -5
-8 12 -4 29 7 253 -61 245 -74 -3 -5 0 -12 6 -16 8 -4 9 -3 5 4 -8 13 -1 14
31 6 13 -4 20 -11 16 -17 -3 -6 -1 -7 5 -3 12 7 151 -42 150 -53 -2 -17 3 -25
10 -15 5 9 25 5 70 -13 47 -19 60 -28 50 -35 -10 -8 -9 -9 4 -4 22 7 179 -64
171 -77 -3 -6 -1 -7 5 -3 15 9 55 -18 44 -29 -4 -5 -1 -5 6 -1 14 9 114 -43
106 -55 -3 -5 0 -9 6 -9 6 0 8 -5 4 -12 -4 -7 -3 -8 5 -4 6 4 8 12 4 19 -3 6
9 2 28 -10 171 -101 207 -126 203 -138 -3 -7 -1 -16 5 -20 7 -4 8 0 4 11 -4
12 -2 15 8 12 8 -3 13 -11 11 -17 -1 -7 2 -10 7 -7 12 8 157 -92 153 -105 -1
-6 1 -8 6 -5 4 2 21 -6 38 -20 16 -14 24 -23 18 -20 -6 3 -11 -1 -11 -9 0 -14
17 -16 27 -3 3 3 23 -10 45 -29 22 -19 32 -32 22 -29 -11 4 -16 2 -12 -5 4 -6
14 -8 22 -5 21 8 97 -55 81 -66 -10 -7 -9 -8 3 -6 19 3 142 -99 134 -112 -3
-5 0 -12 6 -16 8 -4 9 -3 5 4 -20 32 17 4 84 -63 41 -41 72 -75 68 -75 -3 0
17 -22 45 -50 28 -27 46 -50 41 -50 -5 0 -10 -13 -10 -29 -1 -23 1 -27 11 -18
7 7 10 18 8 24 -8 19 2 16 23 -9 10 -12 13 -18 5 -13 -10 5 -12 4 -7 -4 4 -6
11 -9 15 -6 5 2 16 -4 25 -14 12 -13 14 -21 6 -26 -5 -3 -7 -11 -4 -17 4 -6 9
-5 15 3 4 7 9 11 11 9 2 -3 24 -30 49 -60 76 -91 159 -206 159 -218 0 -7 4
-12 8 -12 9 0 102 -136 102 -148 0 -4 -5 0 -11 8 -9 13 -10 13 -6 0 2 -8 10
-15 18 -15 8 0 13 -8 13 -18 -1 -9 2 -15 6 -12 11 7 81 -115 74 -127 -4 -6 -3
-8 3 -5 6 4 37 -43 71 -106 110 -205 130 -250 125 -283 -4 -23 0 -33 12 -38
15 -5 16 -4 5 8 -6 9 -10 20 -8 27 3 9 69 -130 85 -180 4 -13 3 -13 -5 -2 -7
10 -10 7 -9 -13 0 -27 12 -36 19 -14 3 7 19 -28 37 -76 17 -49 29 -96 27 -103
-3 -8 -2 -12 3 -9 13 8 82 -225 75 -254 -4 -16 -3 -21 3 -12 16 22 92 -325 77
-350 -4 -6 -3 -8 3 -5 7 4 17 -32 27 -98 76 -488 69 -986 -19 -1470 -38 -206
-65 -314 -78 -311 -7 1 -9 1 -4 -1 4 -3 7 -14 7 -24 0 -12 -4 -17 -11 -13 -7
4 -9 0 -5 -13 12 -38 -124 -444 -147 -439 -7 1 -9 1 -4 -1 4 -3 7 -11 7 -19 0
-9 -4 -12 -10 -9 -5 3 -7 0 -5 -8 7 -18 -64 -189 -76 -181 -5 3 -6 -1 -4 -8 3
-8 -25 -74 -63 -148 -55 -109 -71 -135 -87 -133 -11 1 -14 0 -7 -3 6 -3 12
-10 12 -15 0 -19 -57 -99 -64 -92 -5 5 -6 1 -4 -7 6 -18 -10 -53 -20 -46 -4 2
-8 -3 -8 -12 0 -29 -126 -214 -138 -202 -16 16 -23 12 -23 -15 0 -14 4 -22 10
-18 16 10 1 -12 -96 -140 -49 -64 -96 -121 -105 -127 -10 -5 -14 -10 -10 -10
4 0 0 -9 -9 -19 -9 -11 -20 -18 -25 -15 -4 3 -8 -5 -8 -16 0 -16 -5 -20 -15
-16 -8 3 -15 1 -15 -5 0 -6 -5 -7 -12 -3 -8 5 -9 2 -5 -9 8 -22 -80 -130 -100
-123 -8 4 -11 1 -7 -5 8 -14 -106 -130 -120 -122 -6 3 -8 2 -3 -2 10 -11 -23
-46 -36 -38 -5 3 -7 2 -4 -4 8 -13 -140 -146 -153 -138 -6 4 -9 1 -8 -7 2 -7
-3 -12 -10 -10 -8 1 -11 -1 -8 -6 2 -4 -8 -17 -22 -29 -15 -12 -61 -49 -102
-82 -41 -33 -81 -59 -87 -56 -7 2 -12 -1 -10 -7 3 -13 -121 -100 -133 -93 -5
3 -12 0 -16 -6 -4 -8 -3 -9 4 -5 7 4 12 5 12 3 0 -4 -38 -29 -160 -106 -13 -9
-21 -11 -17 -4 4 6 2 15 -4 19 -8 4 -9 3 -5 -4 9 -15 -32 -55 -50 -48 -8 3
-13 0 -11 -7 1 -7 -6 -11 -16 -11 -10 1 -16 -1 -12 -4 8 -9 -148 -93 -163 -87
-7 3 -11 1 -8 -4 3 -4 -47 -33 -112 -64 -167 -80 -214 -99 -229 -93 -8 3 -12
2 -8 -3 7 -12 -103 -54 -117 -45 -6 4 -8 3 -5 -3 7 -11 -212 -86 -411 -139
-124 -33 -148 -36 -175 -26 -30 11 -31 10 -12 -4 19 -16 19 -16 -7 -12 -15 3
-25 1 -22 -3 3 -5 2 -9 -3 -9 -4 0 -71 -11 -148 -24 -170 -29 -357 -50 -384
-43 -11 3 -21 1 -23 -4 -2 -5 -106 -12 -232 -16 -138 -4 -227 -3 -224 3 4 5
-53 10 -136 11 -214 2 -660 68 -679 99 -4 8 -13 14 -20 14 -7 0 -6 -4 3 -11
21 -14 -27 -5 -183 37 -70 19 -130 34 -133 34 -3 0 -2 4 1 10 3 6 -1 7 -10 4
-20 -8 -337 105 -329 117 3 5 -3 6 -12 2 -11 -4 -15 -3 -11 4 5 7 0 9 -12 6
-11 -3 -27 4 -41 19 -13 12 -20 17 -16 11 10 -19 5 -17 -86 26 -174 81 -198
93 -191 104 3 5 1 7 -5 4 -15 -10 -43 3 -35 16 3 5 1 7 -4 4 -14 -9 -139 58
-136 72 2 6 -5 7 -14 4 -10 -4 -14 -2 -9 5 4 6 -1 10 -11 10 -24 -2 -125 61
-118 73 4 5 0 6 -7 4 -8 -3 -63 29 -124 71 -94 66 -165 121 -126 100 18 -10
15 -1 -5 15 -11 10 -14 10 -9 2 9 -16 -6 -17 -22 -1 -15 15 -15 28 -1 28 5 0
7 -5 4 -11 -4 -6 2 -5 14 3 12 7 17 16 11 22 -5 5 -18 3 -33 -7 -23 -15 -26
-15 -41 2 -9 10 -13 21 -9 26 5 4 2 5 -5 1 -12 -7 -133 83 -164 122 -12 15
-11 16 5 3 11 -9 17 -10 17 -2 0 10 -14 15 -34 12 -5 -1 -12 2 -15 6 -3 5 -43
42 -89 82 -61 55 -79 77 -70 84 9 6 8 7 -4 3 -12 -3 -37 17 -85 70 -37 41 -67
79 -65 85 1 6 -2 8 -7 5 -10 -7 -33 18 -26 27 3 4 2 5 -2 2 -8 -6 -33 14 -33
27 0 5 4 7 8 4 5 -3 9 1 9 9 0 11 -4 12 -13 4 -9 -7 -29 10 -77 68 -36 43 -61
80 -56 81 5 2 9 8 9 14 0 6 -6 8 -14 5 -16 -6 -40 16 -29 26 3 4 1 7 -6 7 -7
0 -9 5 -6 10 4 6 2 9 -3 8 -12 -4 -43 35 -126 154 -37 54 -64 102 -61 108 4 6
3 9 -2 8 -4 -2 -9 1 -10 6 -1 5 -7 12 -14 17 -10 6 -10 10 0 23 14 16 7 36
-12 36 -8 0 -7 -3 2 -9 7 -5 10 -14 7 -20 -4 -6 -11 -9 -16 -6 -16 10 -60 97
-53 108 3 5 1 7 -5 3 -12 -7 -123 189 -208 371 -102 217 -218 524 -210 556 2
9 1 15 -3 12 -12 -7 -45 111 -36 125 5 8 4 11 -2 7 -6 -4 -13 7 -17 25 -4 21
-2 34 6 40 10 6 9 8 -3 8 -12 0 -22 25 -39 103 -13 56 -24 117 -24 134 -1 18
-4 33 -7 33 -7 0 -34 171 -54 345 -22 187 -30 531 -16 715 15 205 42 420 53
420 5 0 6 4 3 10 -11 18 53 342 66 334 5 -3 6 1 3 9 -3 8 2 43 11 78 45 176
165 524 173 501 2 -6 -2 -20 -8 -31 -8 -17 -8 -19 4 -15 9 3 13 18 12 42 -1
21 8 62 22 95 23 53 42 73 42 45 0 -9 4 -8 10 2 5 8 10 22 10 30 0 13 -1 13
-10 0 -5 -8 -11 -12 -15 -9 -3 3 7 32 21 63 19 42 29 55 37 47 21 -21 30 -11
11 11 -12 13 -13 18 -4 13 24 -15 40 -14 40 1 0 7 -6 11 -14 8 -27 -10 -25 14
7 77 23 44 39 65 54 67 20 3 42 32 24 32 -5 0 -11 -6 -14 -12 -2 -7 -7 -10
-11 -6 -9 8 123 238 136 238 5 0 7 4 4 9 -7 11 19 46 36 46 7 0 12 9 12 18 -2
23 90 159 101 149 5 -4 6 -2 2 4 -3 5 17 40 44 77 43 57 54 66 74 61 20 -5 24
-2 22 15 -1 15 -4 17 -14 9 -32 -26 -18 1 24 47 25 28 42 44 38 38 -7 -15 4
-17 23 -4 11 6 10 10 -4 15 -15 6 -13 11 16 41 25 26 36 32 43 22 6 -8 7 -6 3
7 -5 15 8 35 51 79 159 164 225 227 235 221 6 -4 8 -3 5 3 -3 5 9 25 28 43 25
24 40 31 56 27 16 -4 19 -3 11 5 -9 9 -8 16 5 30 20 23 34 23 26 1 -4 -11 -3
-14 6 -9 7 5 10 14 7 22 -3 8 21 35 62 69 63 52 92 69 76 44 -4 -8 0 -8 15 0
25 14 28 22 4 15 -29 -9 43 50 154 126 58 41 108 68 115 64 6 -4 8 -3 4 4 -3
6 20 26 55 48 50 30 63 34 71 23 8 -11 9 -11 5 3 -7 20 3 27 138 97 55 29 90
45 78 34 l-23 -18 23 -1 c15 -1 27 7 34 22 6 13 7 22 2 18 -5 -3 -9 -2 -9 1 0
3 32 21 72 40 54 26 74 32 80 22 7 -11 12 -3 10 14 -2 12 98 50 110 43 6 -4 8
-3 5 3 -8 13 207 98 224 88 7 -5 10 -4 5 3 -8 13 180 76 196 66 6 -4 8 -3 5 3
-8 12 88 37 104 27 7 -4 9 -3 6 3 -7 12 185 60 385 97 129 24 355 52 468 59
133 8 517 6 645 -3z"/>
<path d="M4310 9400 c-9 -6 -10 -10 -3 -10 6 0 15 5 18 10 8 12 4 12 -15 0z"/>
<path d="M4198 9373 c7 -3 16 -2 19 1 4 3 -2 6 -13 5 -11 0 -14 -3 -6 -6z"/>
<path d="M3980 9315 c0 -8 2 -15 4 -15 2 0 6 7 10 15 3 8 1 15 -4 15 -6 0 -10
-7 -10 -15z"/>
<path d="M6260 9314 c0 -10 33 -33 48 -34 6 0 12 7 12 16 0 11 -6 14 -20 9
-11 -4 -20 -2 -20 4 0 6 -4 11 -10 11 -5 0 -10 -3 -10 -6z"/>
<path d="M3878 9283 c7 -3 16 -2 19 1 4 3 -2 6 -13 5 -11 0 -14 -3 -6 -6z"/>
<path d="M3671 9231 c-7 -5 -11 -15 -9 -22 3 -10 8 -7 17 9 13 24 12 26 -8 13z"/>
<path d="M6727 9159 c7 -7 15 -10 18 -7 3 3 -2 9 -12 12 -14 6 -15 5 -6 -5z"/>
<path d="M3416 9132 c-3 -5 1 -9 9 -9 8 0 12 4 9 9 -3 4 -7 8 -9 8 -2 0 -6 -4
-9 -8z"/>
<path d="M2956 8893 c-3 -7 -2 -13 3 -13 5 0 14 6 20 13 8 10 7 14 -4 14 -8 0
-16 -6 -19 -14z"/>
<path d="M7367 8840 c7 -8 20 -15 29 -16 9 -1 13 1 9 4 -4 4 -10 7 -13 7 -4 0
-14 4 -22 9 -12 7 -13 6 -3 -4z"/>
<path d="M2790 8810 c-12 -7 -10 -9 8 -7 12 0 22 5 22 9 0 11 -12 10 -30 -2z"/>
<path d="M2710 8751 c0 -6 -7 -11 -16 -11 -8 0 -12 -4 -9 -10 3 -5 13 -10 21
-10 8 0 13 4 10 9 -4 5 -1 11 6 13 9 3 9 6 0 12 -7 4 -12 2 -12 -3z"/>
<path d="M2380 8510 c-13 -8 -12 -10 3 -10 9 0 17 5 17 10 0 12 -1 12 -20 0z"/>
<path d="M7878 8483 c7 -3 16 -2 19 1 4 3 -2 6 -13 5 -11 0 -14 -3 -6 -6z"/>
<path d="M8006 8372 c-6 -10 -2 -39 6 -47 3 -3 5 5 4 17 -1 13 3 26 9 30 6 5
6 8 -2 8 -6 0 -14 -4 -17 -8z"/>
<path d="M2140 8285 c-7 -9 -8 -15 -2 -15 5 0 12 7 16 15 3 8 4 15 2 15 -2 0
-9 -7 -16 -15z"/>
<path d="M2057 8199 c7 -7 15 -10 18 -7 3 3 -2 9 -12 12 -14 6 -15 5 -6 -5z"/>
<path d="M2030 8196 c0 -2 8 -10 18 -17 15 -13 16 -12 3 4 -13 16 -21 21 -21
13z"/>
<path d="M8257 8140 c6 -7 9 -18 7 -25 -3 -6 2 -12 10 -12 11 0 13 5 5 18 -5
10 -15 21 -22 25 -9 5 -9 4 0 -6z"/>
<path d="M1970 8126 c0 -2 7 -6 15 -10 8 -3 15 -1 15 4 0 6 -7 10 -15 10 -8 0
-15 -2 -15 -4z"/>
<path d="M1900 8060 c-13 -8 -12 -10 3 -10 9 0 17 5 17 10 0 12 -1 12 -20 0z"/>
<path d="M8481 7863 c0 -16 3 -22 6 -15 4 10 8 10 21 0 12 -10 12 -7 -2 15
-10 15 -20 27 -22 27 -2 0 -4 -12 -3 -27z"/>
<path d="M1666 7773 c-6 -14 -5 -15 5 -6 7 7 10 15 7 18 -3 3 -9 -2 -12 -12z"/>
<path d="M8565 7770 c-3 -5 -1 -10 4 -10 6 0 11 5 11 10 0 6 -2 10 -4 10 -3 0
-8 -4 -11 -10z"/>
<path d="M8580 7746 c0 -2 7 -9 15 -16 9 -7 15 -8 15 -2 0 5 -7 12 -15 16 -8
3 -15 4 -15 2z"/>
<path d="M1555 7619 c-4 -6 -4 -13 -1 -16 3 -4 6 -1 6 7 0 10 3 10 15 0 9 -7
18 -10 22 -6 3 3 1 6 -6 6 -7 0 -9 5 -6 10 3 6 -1 10 -9 10 -8 0 -18 -5 -21
-11z"/>
<path d="M3155 7408 c-3 -13 -4 -233 -3 -490 3 -444 2 -466 -14 -451 -17 15
-18 15 -18 -1 0 -9 4 -15 9 -12 5 3 14 -1 21 -9 7 -8 17 -11 24 -7 6 4 332 7
723 7 l713 0 0 -282 0 -283 -36 0 c-25 0 -33 4 -29 13 4 6 1 5 -7 -4 -10 -12
-41 -18 -128 -23 -63 -4 -149 -11 -190 -16 -41 -5 -100 -12 -130 -15 -30 -3
-113 -15 -185 -26 -71 -11 -138 -18 -148 -15 -9 2 -15 1 -12 -4 2 -4 -19 -11
-48 -14 -28 -4 -85 -14 -125 -22 -58 -12 -77 -13 -88 -3 -8 6 -17 9 -21 5 -3
-3 -1 -6 5 -6 7 0 12 -4 12 -10 0 -5 -9 -10 -20 -10 -14 0 -18 5 -13 17 6 15
5 16 -9 3 -9 -8 -14 -18 -12 -21 1 -3 -20 -11 -49 -18 -29 -7 -83 -22 -121
-33 -55 -16 -75 -17 -95 -9 -25 11 -25 11 -6 -5 20 -16 20 -16 -3 -11 -14 3
-20 1 -15 -6 4 -6 -2 -8 -15 -5 -14 4 -20 2 -16 -4 4 -6 -2 -8 -17 -4 -13 3
-18 3 -10 -1 10 -4 -2 -12 -33 -25 -26 -10 -52 -15 -58 -12 -7 4 -8 2 -4 -4 9
-16 -7 -15 -22 0 -9 9 -12 9 -12 0 0 -7 6 -12 13 -12 6 0 -12 -11 -41 -25 -30
-14 -67 -34 -83 -46 -16 -11 -34 -17 -40 -13 -8 5 -9 3 -5 -5 6 -8 2 -11 -10
-9 -11 2 -19 -3 -19 -12 -1 -8 -7 -14 -14 -12 -7 1 -10 -2 -7 -6 3 -5 -16 -29
-42 -53 -83 -77 -109 -178 -67 -264 10 -22 45 -66 78 -99 32 -32 56 -60 54
-62 -2 -3 -10 2 -17 11 -7 8 -16 15 -21 15 -13 0 -11 -28 3 -36 7 -4 8 -3 4 4
-8 13 6 16 18 5 4 -5 15 -8 24 -8 27 -1 63 -25 56 -37 -5 -7 -2 -8 5 -3 19 11
60 -14 54 -34 -4 -13 -3 -13 5 -2 9 12 19 10 66 -12 31 -15 61 -27 67 -27 6 0
7 -5 3 -12 -4 -7 -3 -8 5 -4 14 9 51 -2 51 -16 0 -7 -4 -7 -13 0 -8 7 -18 7
-27 2 -8 -5 -18 -6 -24 -3 -5 3 -6 1 -2 -5 4 -7 25 -12 47 -12 24 0 38 4 34
10 -3 6 -1 10 4 10 6 0 11 -8 11 -17 0 -13 3 -15 8 -5 7 10 17 9 53 -3 135
-48 494 -126 701 -152 79 -10 132 -21 125 -25 -7 -5 -1 -6 13 -3 14 3 84 -1
155 -9 72 -8 199 -20 282 -27 l153 -12 2 -966 3 -966 505 0 505 0 3 961 2 962
31 6 c17 3 57 6 88 6 252 0 957 112 1238 196 46 14 88 22 95 18 6 -4 8 -3 5 3
-3 5 19 17 49 27 46 15 58 15 72 4 15 -12 16 -11 4 4 -12 15 -10 18 15 25 15
4 34 6 42 4 7 -1 10 2 7 7 -7 12 42 34 56 26 6 -4 8 -2 5 3 -8 13 20 26 35 16
7 -3 8 -1 4 5 -11 17 5 14 26 -5 10 -9 18 -11 18 -6 0 6 -8 14 -17 17 -27 11
44 50 85 47 34 -3 40 7 20 28 -11 10 -10 12 2 9 8 -2 14 2 15 8 0 6 15 27 34
45 97 98 106 224 22 326 -17 21 -28 39 -26 41 2 3 13 -6 23 -18 l19 -23 -1 24
c-1 26 -24 42 -42 28 -14 -11 -57 19 -48 33 4 6 3 8 -3 5 -5 -3 -28 7 -51 22
-24 15 -64 38 -91 51 -32 15 -48 28 -46 39 1 9 0 10 -2 4 -6 -17 -24 -17 -20
-1 1 8 -11 13 -33 15 -33 2 -178 51 -154 52 16 1 13 28 -3 28 -7 0 -13 -7 -13
-15 0 -10 -7 -12 -22 -8 -13 3 -51 13 -86 22 -55 15 -61 18 -50 33 12 14 11
15 -5 2 -15 -12 -32 -11 -122 10 -65 15 -99 27 -92 32 7 6 4 6 -8 2 -24 -8
-216 25 -210 36 3 4 -5 5 -17 2 -18 -4 -20 -2 -8 6 8 5 12 13 8 16 -3 3 -12
-1 -20 -9 -13 -12 -28 -12 -124 2 -60 9 -110 19 -112 23 -1 3 -13 4 -25 2 -12
-2 -92 5 -177 16 -85 10 -143 19 -127 20 15 1 27 6 27 11 0 12 -2 12 -37 -1
-31 -12 -233 -1 -212 11 9 6 9 12 -4 24 -21 22 -30 20 -22 -4 4 -11 2 -20 -4
-20 -8 0 -11 88 -11 278 l0 278 718 -1 c438 -1 722 2 730 8 9 7 12 115 12 477
0 258 -3 475 -6 484 -6 15 -188 16 -1965 16 l-1959 0 -5 -22z m3917 -473 l3
-475 -727 0 -728 0 0 -293 0 -293 148 -13 c602 -51 1211 -169 1490 -289 133
-57 217 -108 276 -165 62 -61 84 -99 92 -161 9 -60 -27 -135 -94 -201 -42 -41
-49 -52 -39 -65 10 -13 10 -13 -5 -2 -15 12 -21 11 -45 -6 -55 -39 -213 -112
-326 -151 -325 -112 -915 -215 -1359 -237 l-138 -7 0 -964 0 -963 -500 0 -500
0 2 964 3 965 -75 6 c-753 61 -1231 152 -1564 296 -172 75 -306 178 -342 264
-85 204 187 415 705 545 321 80 907 164 1204 171 l67 2 0 298 0 299 -725 0
-725 0 0 475 0 475 1950 0 1950 0 2 -475z"/>
<path d="M5622 5405 l3 -364 -65 -8 c-86 -10 -730 -10 -850 0 l-95 8 3 360 4
359 -56 0 c-253 0 -864 -88 -1181 -170 -390 -102 -589 -239 -535 -370 20 -47
119 -131 203 -172 377 -184 1463 -312 2352 -279 577 22 1122 87 1478 176 220
55 446 161 491 230 10 16 21 48 24 71 15 133 -176 251 -573 354 -310 81 -532
113 -1148 165 l-59 5 4 -365z m-1019 123 c-2 -161 -7 -224 -16 -230 -9 -6 -9
-8 0 -8 9 0 13 -35 15 -127 3 -124 4 -128 26 -131 12 -2 22 -7 22 -11 0 -13
931 -7 962 7 l28 11 -7 356 -6 355 54 0 c30 0 123 -7 207 -15 304 -29 373 -38
360 -47 -8 -6 -2 -7 18 -3 47 9 448 -60 439 -76 -3 -4 3 -5 13 -2 19 5 147
-25 217 -51 26 -9 33 -15 20 -16 l-20 -1 20 -8 c12 -5 23 -4 27 2 6 10 45 -1
151 -46 41 -17 46 -22 35 -36 -11 -14 -11 -14 3 -3 14 10 23 10 53 -4 19 -10
32 -22 29 -28 -3 -6 -3 -8 2 -4 11 11 59 -17 88 -51 57 -68 57 -149 0 -203
-41 -39 -164 -102 -286 -147 -113 -42 -379 -105 -409 -98 -10 3 -18 2 -18 -2
0 -12 -234 -44 -261 -36 -16 4 -19 3 -11 -3 24 -16 -470 -68 -737 -78 -80 -2
-147 -7 -150 -9 -2 -3 -158 -5 -346 -5 -448 0 -727 18 -1218 76 -32 4 -54 10
-49 13 6 3 -18 6 -52 7 -33 0 -83 6 -111 12 -27 6 -103 21 -168 33 -83 16
-113 26 -100 31 12 6 9 7 -10 3 -29 -6 -59 1 -195 41 -53 16 -80 29 -76 36 5
8 1 9 -10 5 -17 -7 -107 29 -141 57 l-20 16 20 -6 c11 -4 28 -14 38 -22 15
-14 17 -13 17 1 0 10 -7 17 -15 17 -8 0 -15 4 -15 8 0 4 -12 7 -27 7 -29 -1
-66 22 -58 36 3 4 0 11 -6 15 -8 4 -9 3 -5 -4 12 -21 -5 -13 -25 11 -42 48
-51 75 -38 115 15 48 37 72 64 72 12 0 32 11 45 25 13 14 18 25 11 25 -6 0
-14 -6 -17 -14 -3 -8 -14 -16 -26 -19 -18 -5 -19 -4 -4 12 28 31 114 73 119
59 4 -8 6 -7 6 4 2 36 433 170 493 153 18 -5 20 -4 8 4 -12 9 -11 11 8 11 15
0 21 -4 17 -12 -4 -7 0 -6 7 3 17 21 286 72 380 73 37 0 63 3 57 7 -13 8 28
14 236 34 145 14 196 18 306 23 l36 2 -4 -222z"/>
<path d="M5653 5725 c0 -8 4 -15 9 -15 4 0 8 7 8 15 0 8 -4 15 -8 15 -5 0 -9
-7 -9 -15z"/>
<path d="M5960 5705 c5 -7 8 -14 5 -17 -3 -2 2 -5 10 -5 8 0 15 4 15 9 0 4 -5
8 -11 8 -5 0 -8 4 -5 8 3 5 -1 9 -9 9 -10 0 -12 -4 -5 -12z"/>
<path d="M4350 5695 c0 -8 7 -15 16 -15 14 0 14 3 4 15 -7 8 -14 15 -16 15 -2
0 -4 -7 -4 -15z"/>
<path d="M4070 5689 c0 -5 5 -7 10 -4 6 3 10 8 10 11 0 2 -4 4 -10 4 -5 0 -10
-5 -10 -11z"/>
<path d="M4210 5690 c0 -5 5 -10 11 -10 5 0 7 5 4 10 -3 6 -8 10 -11 10 -2 0
-4 -4 -4 -10z"/>
<path d="M4575 5690 c3 -5 8 -10 11 -10 2 0 4 5 4 10 0 6 -5 10 -11 10 -5 0
-7 -4 -4 -10z"/>
<path d="M4568 5653 c7 -3 16 -2 19 1 4 3 -2 6 -13 5 -11 0 -14 -3 -6 -6z"/>
<path d="M5661 5634 c0 -11 3 -14 6 -6 3 7 2 16 -1 19 -3 4 -6 -2 -5 -13z"/>
<path d="M6556 5611 c-4 -5 1 -8 9 -7 21 3 31 16 12 16 -9 0 -18 -4 -21 -9z"/>
<path d="M6640 5609 c0 -5 5 -7 10 -4 6 3 10 8 10 11 0 2 -4 4 -10 4 -5 0 -10
-5 -10 -11z"/>
<path d="M5663 5591 c0 -11 5 -18 9 -15 4 3 5 11 1 19 -7 21 -12 19 -10 -4z"/>
<path d="M7120 5471 c0 -6 4 -13 10 -16 6 -3 7 1 4 9 -7 18 -14 21 -14 7z"/>
<path d="M7291 5371 c-10 -7 -7 -9 12 -8 14 1 23 5 20 10 -6 9 -15 9 -32 -2z"/>
<path d="M7361 5284 c0 -11 3 -14 6 -6 3 7 2 16 -1 19 -3 4 -6 -2 -5 -13z"/>
<path d="M5650 5266 c0 -8 4 -17 9 -20 10 -7 23 19 14 28 -11 11 -23 6 -23 -8z"/>
<path d="M4574 5239 c-3 -6 -2 -15 3 -20 5 -5 9 -1 9 11 0 23 -2 24 -12 9z"/>
<path d="M2910 5188 c0 -4 9 -7 20 -5 29 5 33 13 5 13 -14 0 -25 -4 -25 -8z"/>
<path d="M4569 5198 c-8 -18 -3 -45 7 -45 16 0 19 33 4 42 -5 3 -11 5 -11 3z"/>
<path d="M7301 5195 c1 -19 18 -51 18 -35 0 8 -4 22 -9 30 -5 8 -9 11 -9 5z"/>
<path d="M7280 5170 c0 -5 5 -10 11 -10 5 0 7 5 4 10 -3 6 -8 10 -11 10 -2 0
-4 -4 -4 -10z"/>
<path d="M5652 5095 c2 -33 8 -50 18 -52 13 -4 13 -3 0 6 -8 6 -10 11 -5 11
15 0 13 53 -3 69 -11 11 -13 6 -10 -34z"/>
<path d="M4566 5102 c-3 -5 1 -9 9 -9 8 0 15 4 15 9 0 4 -4 8 -9 8 -6 0 -12
-4 -15 -8z"/>
<path d="M7215 5100 c-3 -5 -1 -10 4 -10 6 0 11 5 11 10 0 6 -2 10 -4 10 -3 0
-8 -4 -11 -10z"/>
<path d="M6985 5030 c3 -5 8 -10 11 -10 2 0 4 5 4 10 0 6 -5 10 -11 10 -5 0
-7 -4 -4 -10z"/>
<path d="M5340 4995 c0 -7 30 -13 34 -7 3 4 -4 9 -15 9 -10 1 -19 0 -19 -2z"/>
<path d="M5036 4961 c-4 -5 3 -7 14 -4 23 6 26 13 6 13 -8 0 -17 -4 -20 -9z"/>
<path d="M3465 4950 c-3 -5 3 -10 14 -10 12 0 21 5 21 10 0 6 -6 10 -14 10 -8
0 -18 -4 -21 -10z"/>
<path d="M6716 4953 c-11 -11 -6 -24 7 -16 6 4 22 8 35 9 36 2 35 11 -2 12
-18 1 -36 -2 -40 -5z"/>
<path d="M6570 4920 c-8 -5 -12 -12 -9 -15 4 -3 12 1 19 10 14 17 11 19 -10 5z"/>
<path d="M4030 4870 c0 -6 -6 -8 -12 -4 -8 4 -10 3 -5 -2 8 -8 57 -14 57 -7 0
1 -9 7 -20 13 -14 8 -20 8 -20 0z"/>
<path d="M6047 4873 c-8 -7 11 -33 24 -33 5 0 9 5 9 10 0 6 -6 9 -12 8 -7 -2
-12 3 -10 10 2 13 -1 15 -11 5z"/>
<path d="M6240 4870 c-12 -8 -10 -9 7 -7 12 2 26 6 29 10 11 11 -19 8 -36 -3z"/>
<path d="M6205 4860 c-3 -5 -1 -10 4 -10 6 0 11 5 11 10 0 6 -2 10 -4 10 -3 0
-8 -4 -11 -10z"/>
<path d="M5845 4830 c3 -5 8 -10 11 -10 2 0 4 5 4 10 0 6 -5 10 -11 10 -5 0
-7 -4 -4 -10z"/>
<path d="M8804 7403 c1 -14 8 -29 16 -31 13 -4 13 -3 2 11 -8 9 -11 21 -8 26
4 5 2 12 -2 15 -5 3 -9 -7 -8 -21z"/>
<path d="M1415 7379 c-4 -6 -5 -12 -2 -15 2 -3 7 2 10 11 7 17 1 20 -8 4z"/>
<path d="M8883 7243 c0 -32 18 -45 32 -23 4 6 -1 7 -11 3 -14 -5 -15 -3 -4 17
7 12 7 20 2 16 -6 -3 -12 0 -14 6 -3 7 -5 -2 -5 -19z"/>
<path d="M1320 7210 c0 -5 4 -10 9 -10 6 0 13 5 16 10 3 6 -1 10 -9 10 -9 0
-16 -4 -16 -10z"/>
<path d="M1157 6896 c-3 -8 -2 -18 3 -21 13 -8 24 15 12 27 -6 6 -11 4 -15 -6z"/>
<path d="M9055 6890 c-3 -6 1 -7 9 -4 18 7 21 14 7 14 -6 0 -13 -4 -16 -10z"/>
<path d="M9128 6733 c7 -3 16 -2 19 1 4 3 -2 6 -13 5 -11 0 -14 -3 -6 -6z"/>
<path d="M1085 6710 c-3 -6 1 -13 10 -16 21 -9 26 -2 10 13 -9 8 -16 9 -20 3z"/>
<path d="M7103 6685 c0 -14 3 -25 8 -25 4 0 6 10 4 21 -6 32 -12 34 -12 4z"/>
<path d="M1077 6679 c7 -7 15 -10 18 -7 3 3 -2 9 -12 12 -14 6 -15 5 -6 -5z"/>
<path d="M1025 6541 c4 -7 2 -16 -5 -21 -9 -5 -9 -9 -1 -14 16 -10 26 23 11
37 -10 9 -11 9 -5 -2z"/>
<path d="M9201 6519 c-1 -20 25 -56 35 -46 4 4 1 13 -8 20 -9 6 -18 19 -21 27
-5 13 -6 13 -6 -1z"/>
<path d="M9203 6434 c-3 -8 -3 -18 1 -21 3 -4 6 2 6 13 0 14 2 16 9 5 5 -8 11
-9 15 -3 3 5 -1 13 -9 16 -9 3 -18 -1 -22 -10z"/>
<path d="M955 6309 c-4 -6 -5 -12 -2 -15 2 -3 7 2 10 11 7 17 1 20 -8 4z"/>
<path d="M947 6273 c-2 -5 -3 -16 -2 -25 2 -10 -1 -18 -6 -18 -6 0 -7 -4 -4
-10 12 -19 21 -10 23 25 3 33 -2 44 -11 28z"/>
<path d="M9286 6253 c-6 -14 -5 -15 5 -6 7 7 10 15 7 18 -3 3 -9 -2 -12 -12z"/>
<path d="M932 6175 c-7 -8 -9 -15 -4 -15 5 0 15 7 22 15 16 19 -1 19 -18 0z"/>
<path d="M5697 5907 c-5 -13 -1 -17 18 -17 26 0 33 14 13 26 -7 4 -8 3 -4 -4
4 -7 3 -12 -3 -12 -5 0 -11 5 -13 12 -3 7 -7 6 -11 -5z"/>
<path d="M5830 5909 c0 -5 5 -7 10 -4 6 3 10 8 10 11 0 2 -4 4 -10 4 -5 0 -10
-5 -10 -11z"/>
<path d="M9361 5904 c0 -11 3 -14 6 -6 3 7 2 16 -1 19 -3 4 -6 -2 -5 -13z"/>
<path d="M4570 5900 c0 -5 5 -10 11 -10 5 0 7 5 4 10 -3 6 -8 10 -11 10 -2 0
-4 -4 -4 -10z"/>
<path d="M4420 5890 c-23 -7 -23 -8 -3 -9 12 -1 25 4 28 9 3 6 5 10 3 9 -2 -1
-14 -5 -28 -9z"/>
<path d="M4490 5890 c0 -6 7 -10 15 -10 8 0 15 2 15 4 0 2 -7 6 -15 10 -8 3
-15 1 -15 -4z"/>
<path d="M871 5864 c0 -11 3 -14 6 -6 3 7 2 16 -1 19 -3 4 -6 -2 -5 -13z"/>
<path d="M3810 5836 c0 -2 8 -10 18 -17 15 -13 16 -12 3 4 -13 16 -21 21 -21
13z"/>
<path d="M6372 5829 c2 -7 10 -15 17 -17 8 -3 12 1 9 9 -2 7 -10 15 -17 17 -8
3 -12 -1 -9 -9z"/>
<path d="M9375 5820 c-3 -5 -1 -10 4 -10 6 0 11 5 11 10 0 6 -2 10 -4 10 -3 0
-8 -4 -11 -10z"/>
<path d="M3768 5803 c6 -2 18 -2 25 0 6 3 1 5 -13 5 -14 0 -19 -2 -12 -5z"/>
<path d="M840 5769 c0 -5 5 -7 10 -4 6 3 10 8 10 11 0 2 -4 4 -10 4 -5 0 -10
-5 -10 -11z"/>
<path d="M3390 5751 c0 -6 4 -13 10 -16 6 -3 7 1 4 9 -7 18 -14 21 -14 7z"/>
<path d="M9360 5695 c0 -8 4 -15 10 -15 5 0 7 7 4 15 -4 8 -8 15 -10 15 -2 0
-4 -7 -4 -15z"/>
<path d="M9395 5679 c-4 -6 -5 -12 -2 -15 2 -3 7 2 10 11 7 17 1 20 -8 4z"/>
<path d="M7166 5662 c-3 -5 1 -9 9 -9 8 0 12 4 9 9 -3 4 -7 8 -9 8 -2 0 -6 -4
-9 -8z"/>
<path d="M7330 5593 c0 -5 4 -15 10 -23 11 -18 25 -7 17 15 -6 15 -27 21 -27
8z"/>
<path d="M2880 5580 c0 -5 5 -10 11 -10 5 0 7 5 4 10 -3 6 -8 10 -11 10 -2 0
-4 -4 -4 -10z"/>
<path d="M2643 5395 c0 -8 4 -15 9 -15 4 0 8 4 8 9 0 6 -4 12 -8 15 -5 3 -9
-1 -9 -9z"/>
<path d="M7659 5279 c-3 -8 -2 -30 1 -49 l6 -35 5 31 c6 35 -4 78 -12 53z"/>
<path d="M2576 5188 c3 -5 10 -6 15 -3 13 9 11 12 -6 12 -8 0 -12 -4 -9 -9z"/>
<path d="M2563 5145 c0 -8 4 -12 9 -9 5 3 6 10 3 15 -9 13 -12 11 -12 -6z"/>
<path d="M2640 5070 c0 -5 5 -10 10 -10 6 0 10 5 10 10 0 6 -4 10 -10 10 -5 0
-10 -4 -10 -10z"/>
<path d="M7581 5057 c-8 -10 -7 -14 4 -14 8 0 15 6 15 14 0 7 -2 13 -4 13 -2
0 -9 -6 -15 -13z"/>
<path d="M2650 5050 c-12 -8 -10 -10 8 -10 13 0 20 4 17 10 -7 12 -6 12 -25 0z"/>
<path d="M6916 4731 c-3 -4 6 -8 19 -9 13 -1 26 2 29 6 2 4 -7 8 -20 8 -13 1
-26 -1 -28 -5z"/>
<path d="M6690 4680 c0 -6 -4 -9 -9 -5 -5 3 -12 1 -16 -5 -8 -12 15 -13 34 -1
9 6 10 11 2 15 -6 4 -11 2 -11 -4z"/>
<path d="M3633 4663 c-25 -9 -12 -19 26 -21 22 -2 42 2 45 7 3 5 -3 7 -14 4
-11 -3 -26 -1 -33 4 -6 6 -18 8 -24 6z"/>
<path d="M3748 4643 c6 -2 18 -2 25 0 6 3 1 5 -13 5 -14 0 -19 -2 -12 -5z"/>
<path d="M6210 4600 c-12 -8 -10 -10 8 -10 13 0 20 4 17 10 -7 12 -6 12 -25 0z"/>
<path d="M4428 4563 c6 -2 18 -2 25 0 6 3 1 5 -13 5 -14 0 -19 -2 -12 -5z"/>
<path d="M9372 4528 c-16 -16 -15 -28 3 -28 8 0 15 9 15 20 0 23 -2 24 -18 8z"/>
<path d="M864 4465 c-3 -8 -1 -27 4 -42 9 -26 10 -26 10 15 0 44 -5 52 -14 27z"/>
<path d="M945 4231 c-3 -5 -2 -12 3 -15 5 -3 9 1 9 9 0 17 -3 19 -12 6z"/>
<path d="M9290 4220 c-9 -6 -10 -10 -3 -10 6 0 15 5 18 10 8 12 4 12 -15 0z"/>
<path d="M952 4130 c0 -14 2 -19 5 -12 2 6 2 18 0 25 -3 6 -5 1 -5 -13z"/>
<path d="M945 4071 c-3 -5 -1 -12 5 -16 5 -3 10 1 10 9 0 18 -6 21 -15 7z"/>
<path d="M1020 3820 c6 -11 13 -20 16 -20 2 0 0 9 -6 20 -6 11 -13 20 -16 20
-2 0 0 -9 6 -20z"/>
<path d="M1102 3646 c7 -8 15 -12 17 -11 5 6 -10 25 -20 25 -5 0 -4 -6 3 -14z"/>
<path d="M1100 3589 c0 -5 5 -7 10 -4 6 3 10 8 10 11 0 2 -4 4 -10 4 -5 0 -10
-5 -10 -11z"/>
<path d="M9086 3493 c-6 -14 -5 -15 5 -6 7 7 10 15 7 18 -3 3 -9 -2 -12 -12z"/>
<path d="M9065 3450 c-3 -5 -1 -10 4 -10 6 0 11 5 11 10 0 6 -2 10 -4 10 -3 0
-8 -4 -11 -10z"/>
<path d="M1175 3419 c10 -32 21 -43 21 -20 0 10 -7 24 -14 31 -12 11 -13 9 -7
-11z"/>
<path d="M8960 3235 c0 -14 4 -25 9 -25 4 0 6 11 3 25 -2 14 -6 25 -8 25 -2 0
-4 -11 -4 -25z"/>
<path d="M1335 3110 c-3 -6 1 -7 9 -4 18 7 21 14 7 14 -6 0 -13 -4 -16 -10z"/>
<path d="M1345 3091 c-3 -5 -2 -12 3 -15 5 -3 9 1 9 9 0 17 -3 19 -12 6z"/>
<path d="M1410 2986 c7 -7 13 -7 20 0 6 6 3 10 -10 10 -13 0 -16 -4 -10 -10z"/>
<path d="M8729 2863 c-13 -16 -12 -17 4 -4 16 13 21 21 13 21 -2 0 -10 -8 -17
-17z"/>
<path d="M8733 2823 c0 -9 4 -10 14 -2 7 6 13 12 13 14 0 1 -6 2 -13 2 -8 0
-14 -6 -14 -14z"/>
<path d="M5665 2710 c3 -5 8 -10 11 -10 2 0 4 5 4 10 0 6 -5 10 -11 10 -5 0
-7 -4 -4 -10z"/>
<path d="M1646 2641 c-3 -5 2 -15 12 -22 15 -12 16 -12 5 2 -7 9 -10 19 -6 22
3 4 4 7 0 7 -3 0 -8 -4 -11 -9z"/>
<path d="M8560 2583 c0 -14 1 -24 3 -22 1 2 8 11 15 20 10 14 10 18 -3 23 -11
4 -15 -1 -15 -21z"/>
<path d="M8487 2499 c7 -7 15 -10 18 -7 3 3 -2 9 -12 12 -14 6 -15 5 -6 -5z"/>
<path d="M8488 2473 c7 -3 16 -2 19 1 4 3 -2 6 -13 5 -11 0 -14 -3 -6 -6z"/>
<path d="M1800 2395 c0 -2 8 -9 18 -14 14 -7 19 -6 19 3 0 6 -9 13 -19 13 -10
1 -18 0 -18 -2z"/>
<path d="M8406 2385 c4 -8 10 -12 15 -9 14 8 10 24 -6 24 -9 0 -12 -6 -9 -15z"/>
<path d="M8326 2311 c-4 -6 -1 -11 6 -11 10 0 10 -2 -1 -9 -7 -5 -12 -14 -10
-20 2 -6 9 -3 16 7 6 10 8 24 3 31 -5 9 -10 10 -14 2z"/>
<path d="M1965 2220 c3 -5 13 -10 21 -10 8 0 12 5 9 10 -3 6 -13 10 -21 10 -8
0 -12 -4 -9 -10z"/>
<path d="M2053 2143 c9 -2 15 -8 12 -13 -3 -5 -2 -11 3 -14 4 -2 9 4 9 15 1
14 -4 19 -20 18 -17 -1 -18 -2 -4 -6z"/>
<path d="M8180 2119 c0 -5 5 -7 10 -4 6 3 10 8 10 11 0 2 -4 4 -10 4 -5 0 -10
-5 -10 -11z"/>
<path d="M8092 2056 c7 -8 15 -12 17 -11 5 6 -10 25 -20 25 -5 0 -4 -6 3 -14z"/>
<path d="M2125 2051 c-3 -6 5 -15 17 -21 21 -10 22 -10 5 4 -18 14 -18 14 0
19 15 4 16 5 1 6 -9 0 -19 -3 -23 -8z"/>
<path d="M8023 1980 c6 -8 12 -16 12 -17 0 -1 6 6 12 16 10 16 9 19 -12 17
-19 -1 -21 -4 -12 -16z"/>
<path d="M2200 1986 c0 -2 7 -7 16 -10 8 -3 12 -2 9 4 -6 10 -25 14 -25 6z"/>
<path d="M8000 1954 c0 -8 5 -12 10 -9 6 3 10 10 10 16 0 5 -4 9 -10 9 -5 0
-10 -7 -10 -16z"/>
<path d="M7929 1912 c9 -7 10 -11 2 -15 -7 -4 -8 -5 0 -3 15 2 13 20 -3 24
-10 3 -10 2 1 -6z"/>
<path d="M2365 1830 c3 -5 8 -10 11 -10 2 0 4 5 4 10 0 6 -5 10 -11 10 -5 0
-7 -4 -4 -10z"/>
<path d="M7687 1725 c-8 -20 -4 -29 11 -24 5 2 6 13 2 23 -6 19 -7 19 -13 1z"/>
<path d="M2612 1663 c14 -17 28 -16 28 1 0 8 -9 14 -19 13 -15 -1 -17 -4 -9
-14z"/>
<path d="M2690 1592 c0 -5 7 -13 16 -16 10 -4 14 -1 12 6 -5 15 -28 23 -28 10z"/>
<path d="M2822 1511 c2 -7 7 -12 11 -12 12 1 9 15 -3 20 -7 2 -11 -2 -8 -8z"/>
<path d="M7375 1511 c-3 -5 -2 -12 3 -15 5 -3 9 1 9 9 0 17 -3 19 -12 6z"/>
<path d="M2860 1491 c0 -25 6 -27 13 -6 4 8 2 17 -3 20 -6 4 -10 -3 -10 -14z"/>
<path d="M2980 1432 c0 -6 13 -9 29 -8 34 1 32 9 -4 13 -14 2 -25 0 -25 -5z"/>
<path d="M3245 1270 c3 -5 8 -10 11 -10 2 0 4 5 4 10 0 6 -5 10 -11 10 -5 0
-7 -4 -4 -10z"/>
<path d="M6930 1270 c-13 -8 -12 -10 3 -10 9 0 17 5 17 10 0 12 -1 12 -20 0z"/>
<path d="M6970 1270 c0 -5 4 -10 9 -10 6 0 13 5 16 10 3 6 -1 10 -9 10 -9 0
-16 -4 -16 -10z"/>
<path d="M6590 1110 c0 -5 5 -10 11 -10 5 0 7 5 4 10 -3 6 -8 10 -11 10 -2 0
-4 -4 -4 -10z"/>
<path d="M3885 1029 c-3 -3 4 -9 15 -12 12 -3 20 0 20 7 0 13 -28 18 -35 5z"/>
<path d="M6325 1029 c-4 -6 -5 -12 -2 -15 2 -3 7 2 10 11 7 17 1 20 -8 4z"/>
<path d="M6350 1028 c0 -4 4 -8 9 -8 6 0 12 4 15 8 3 5 -1 9 -9 9 -8 0 -15 -4
-15 -9z"/>
<path d="M6264 1015 c-18 -14 -18 -14 4 -8 12 3 22 9 22 14 0 12 -3 11 -26 -6z"/>
<path d="M4190 950 c0 -5 6 -10 14 -10 8 0 18 5 21 10 3 6 -3 10 -14 10 -12 0
-21 -4 -21 -10z"/>
<path d="M5944 939 c0 -10 4 -19 8 -19 4 0 8 6 8 14 0 8 -4 17 -8 20 -4 2 -8
-4 -8 -15z"/>
<path d="M4690 870 c20 -13 33 -13 25 0 -3 6 -14 10 -23 10 -15 0 -15 -2 -2
-10z"/>
<path d="M5203 865 c0 -8 6 -15 13 -15 8 0 11 6 8 15 -4 8 -9 15 -13 15 -4 0
-8 -7 -8 -15z"/>
<path d="M5258 873 c6 -2 10 -8 8 -12 -3 -4 5 -7 17 -8 12 0 16 1 9 4 -6 3
-10 9 -6 14 3 5 -5 9 -18 8 -13 0 -17 -3 -10 -6z"/>
<path d="M5310 865 c0 -11 10 -15 33 -14 30 2 30 2 4 6 -15 2 -25 9 -22 14 4
5 1 9 -4 9 -6 0 -11 -7 -11 -15z"/>
<path d="M5416 871 c-15 -6 -16 -10 -7 -16 7 -4 16 -3 20 2 3 6 13 13 21 16
13 5 13 5 0 6 -8 0 -24 -4 -34 -8z"/>
<path d="M4758 863 c6 -2 18 -2 25 0 6 3 1 5 -13 5 -14 0 -19 -2 -12 -5z"/>
</g>
</svg>
